<svg width="874" height="408" viewBox="0 0 874 408" xmlns="http://www.w3.org/2000/svg" xmlns:xlink="http://www.w3.org/1999/xlink"><title>Footer bg</title><defs><path id="a" d="M0 0h917v408H0z"/></defs><g transform="translate(-32 0)" fill="none" fill-rule="evenodd"><mask id="b" fill="#fff"><use xlink:href="#a"/></mask><use xlink:href="#a"/><g fill="#303030" mask="url(#b)"><g id="shape2"><path d="M655 102C755.603-37.07 859 57.256 859 57.256" id="Path-67"/><path d="M655 102c-100.603 139.07-204 44.744-204 44.744" id="Path-68"/></g><g id="shape1"><path d="M655 102C515.93 1.397 610.256-102 610.256-102" id="Path-67"/><path d="M655 102c139.07 100.603 44.744 204 44.744 204" id="Path-68"/></g></g><g fill="#303030" mask="url(#b)"><g id="shape2"><path d="M129 83c47.836-66.125 97-21.275 97-21.275" id="Path-67"/><path d="M130.448 83C81.898 149.126 32 104.275 32 104.275" id="Path-68"/></g><g id="shape1"><path d="M129 83c-66.125-47.836-21.275-97-21.275-97" id="Path-67"/><path d="M129 81.552C195.126 130.102 150.275 180 150.275 180" id="Path-68"/></g></g><g fill="#303030" mask="url(#b)"><g id="shape2"><path d="M846.5 310.5c29.342-40.562 59.5-13.05 59.5-13.05" id="Path-67"/><path d="M847.388 310.5C817.608 351.06 787 323.55 787 323.55" id="Path-68"/></g><g id="shape1"><path d="M846.5 310.5c-40.562-29.342-13.05-59.5-13.05-59.5" id="Path-67"/><path d="M846.5 309.612C887.06 339.392 859.55 370 859.55 370" id="Path-68"/></g></g><g fill="#303030" mask="url(#b)"><path d="M313 324c61.644-85.214 125-27.417 125-27.417" id="Path-67"/><path d="M314.866 324C252.302 409.213 188 351.416 188 351.416" id="Path-68"/><g><path d="M313 324c-85.214-61.644-27.417-125-27.417-125M313 322.134C398.213 384.698 340.416 449 340.416 449"/></g></g></g></svg>