<?xml version="1.0" encoding="UTF-8" standalone="no"?>
<svg width="14px" height="15px" viewBox="0 0 14 15" version="1.1" xmlns="http://www.w3.org/2000/svg" xmlns:xlink="http://www.w3.org/1999/xlink" xmlns:sketch="http://www.bohemiancoding.com/sketch/ns">
    <!-- Generator: Sketch 3.2.2 (9983) - http://www.bohemiancoding.com/sketch -->
    <title>Coffee cup 2</title>
    <desc>Created with Sketch.</desc>
    <defs></defs>
    <g id="Welcome" stroke="none" stroke-width="1" fill="none" fill-rule="evenodd" sketch:type="MSPage">
        <g id="Cart" sketch:type="MSArtboardGroup" transform="translate(-169.000000, -32.000000)" fill="#6A6A6A">
            <g id="Header-Nomral-Logged-In" sketch:type="MSLayerGroup" transform="translate(-73.000000, 0.000000)">
                <g id="Input-/-Text-3" transform="translate(230.000000, 21.000000)" sketch:type="MSShapeGroup">
                    <path d="M23.6806667,18.6573131 L23.6806667,17.1707677 C23.6806667,16.9728586 23.5336667,16.8131313 23.3528333,16.8131313 L12.3278333,16.8131313 C12.1475833,16.8131313 12,16.9734949 12,17.1707677 L12,20.776404 C12,22.7949495 12.86275,24.654404 14.3654167,25.8762222 C14.4225833,25.9220404 14.492,25.9468586 14.5614167,25.9468586 L21.1169167,25.9468586 C21.1863333,25.9468586 21.25575,25.9220404 21.3129167,25.8762222 C21.9213333,25.3817677 22.4148333,24.7574949 22.8120833,24.0441313 C22.9853333,24.0886768 23.15975,24.1421313 23.3236667,24.1446768 L23.3534167,24.1446768 C24.7318333,24.1446768 25.86875,22.9177677 25.88625,21.4102222 C25.90025,20.0083131 24.9441667,18.8463131 23.6806667,18.6573131 L23.6806667,18.6573131 Z M23.0244167,18.9767677 L23.0244167,20.776404 C23.0244167,21.0150404 23.0098333,21.2498586 22.9824167,21.4808586 C22.9013333,22.1770404 22.6989167,22.8464949 22.3751667,23.4809495 C22.0251667,24.1682222 21.5649167,24.7574949 21.0055,25.2296768 L14.6734167,25.2296768 C13.3895,24.1446768 12.6556667,22.5276768 12.6556667,20.776404 L12.6556667,17.528404 L23.0244167,17.528404 L23.0244167,18.9767677 L23.0244167,18.9767677 Z M23.3528333,23.4274949 L23.33125,23.4274949 C23.27,23.4274949 23.207,23.422404 23.1434167,23.4128586 C23.1591667,23.380404 23.1626667,23.3447677 23.1755,23.3123131 C23.3236667,22.9508586 23.4420833,22.5817677 23.5231667,22.1999495 C23.5389167,22.1350404 23.5459167,22.0682222 23.5593333,22.001404 C23.6334167,21.6011313 23.68125,21.1932222 23.68125,20.7770404 L23.68125,19.3636768 C24.5685,19.5354949 25.23875,20.3888586 25.2294167,21.4044949 C25.2165833,22.519404 24.3748333,23.4274949 23.3528333,23.4274949 Z M17.83975,15.8312222 C18.02,15.8312222 18.1675833,15.6708586 18.1675833,15.4735859 L18.1675833,11.7947677 C18.1675833,11.5968586 18.0194167,11.4371313 17.83975,11.4371313 C17.65775,11.4371313 17.51075,11.5974949 17.51075,11.7947677 L17.51075,15.4735859 C17.5101667,15.6708586 17.6571667,15.8312222 17.83975,15.8312222 Z M20.59775,15.8312222 C20.7791667,15.8312222 20.9255833,15.6708586 20.9255833,15.4735859 L20.9255833,12.642404 C20.9255833,12.4444949 20.7785833,12.2847677 20.59775,12.2847677 C20.4169167,12.2847677 20.2699167,12.4451313 20.2699167,12.642404 L20.2699167,15.4735859 C20.2699167,15.6708586 20.4169167,15.8312222 20.59775,15.8312222 Z M15.0823333,15.8312222 C15.2625833,15.8312222 15.4101667,15.6708586 15.4101667,15.4735859 L15.4101667,12.642404 C15.4101667,12.4444949 15.262,12.2847677 15.0823333,12.2847677 C14.9009167,12.2847677 14.7545,12.4451313 14.7545,12.642404 L14.7545,15.4735859 C14.7545,15.6708586 14.9015,15.8312222 15.0823333,15.8312222 Z" id="Coffee-cup-2"></path>
                </g>
            </g>
        </g>
    </g>
</svg>